<?xml version="1.0" encoding="UTF-8" standalone="no"?>
<svg
   height="128"
   width="128"
   version="1.1"
   id="svg88"
   sodipodi:docname="icon.svg"
   inkscape:version="1.2.2 (b0a8486541, 2022-12-01)"
   xmlns:inkscape="http://www.inkscape.org/namespaces/inkscape"
   xmlns:sodipodi="http://sodipodi.sourceforge.net/DTD/sodipodi-0.dtd"
   xmlns="http://www.w3.org/2000/svg"
   xmlns:svg="http://www.w3.org/2000/svg">
  <defs
     id="defs92" />
  <sodipodi:namedview
     id="namedview90"
     pagecolor="#505050"
     bordercolor="#eeeeee"
     borderopacity="1"
     inkscape:showpageshadow="0"
     inkscape:pageopacity="0"
     inkscape:pagecheckerboard="0"
     inkscape:deskcolor="#505050"
     showgrid="false"
     inkscape:zoom="6.2363239"
     inkscape:cx="80.415965"
     inkscape:cy="72.799298"
     inkscape:window-width="1920"
     inkscape:window-height="1007"
     inkscape:window-x="1680"
     inkscape:window-y="0"
     inkscape:window-maximized="1"
     inkscape:current-layer="svg88" />
  <g
     transform="translate(32 32)"
     id="g68">
    <path
       d="m-16-32c-8.86 0-16 7.13-16 15.99v95.98c0 8.86 7.13 15.99 16 15.99h96c8.86 0 16-7.13 16-15.99v-95.98c0-8.85-7.14-15.99-16-15.99z"
       fill="#363d52"
       id="path64"
       style="fill:#5d1d6b;fill-opacity:1" />
    <path
       d="m-16-32c-8.86 0-16 7.13-16 15.99v95.98c0 8.86 7.13 15.99 16 15.99h96c8.86 0 16-7.13 16-15.99v-95.98c0-8.85-7.14-15.99-16-15.99zm0 4h96c6.64 0 12 5.35 12 11.99v95.98c0 6.64-5.35 11.99-12 11.99h-96c-6.64 0-12-5.35-12-11.99v-95.98c0-6.64 5.36-11.99 12-11.99z"
       fill-opacity=".4"
       id="path66" />
  </g>
  <g
     aria-label="L/D"
     id="text4679"
     style="font-weight:bold;font-size:38.8122px;line-height:0.75;-inkscape-font-specification:'sans-serif, Bold';display:inline;fill:#ffffff;stroke:#ffffff;stroke-width:0.404929"
     inkscape:label="text_as_path">
    <path
       d="m 20.039981,83.991997 v -39.984 h 8.456 v 32.984 h 16.24 v 7 z"
       style="font-size:56px;text-align:center;text-anchor:middle"
       id="path4919" />
    <path
       d="m 69.488011,44.007997 -14.896,39.984 h -7.56 l 14.896,-39.984 z"
       style="font-size:56px;text-align:center;text-anchor:middle"
       id="path4921" />
    <path
       d="m 107.96002,63.607997 q 0,10.136 -5.768,15.288 -5.712003,5.096 -16.072003,5.096 h -11.312 v -39.984 h 12.544 q 6.272,0 10.864,2.24 4.648003,2.24 7.168003,6.608 2.576,4.312 2.576,10.752 z m -8.792003,0.224 q 0,-6.664 -2.912,-9.744 -2.912,-3.136 -8.456,-3.136 h -4.536 v 26.04 h 3.64 q 12.264,0 12.264,-13.16 z"
       style="font-size:56px;text-align:center;text-anchor:middle"
       id="path4923" />
  </g>
  <text
     xml:space="preserve"
     style="font-style:normal;font-variant:normal;font-weight:bold;font-stretch:normal;font-size:38.8122px;line-height:0.75;font-family:sans-serif;-inkscape-font-specification:'sans-serif, Bold';font-variant-ligatures:normal;font-variant-caps:normal;font-variant-numeric:normal;font-variant-east-asian:normal;display:none;fill:#ffffff;fill-opacity:1;stroke:#ffffff;stroke-width:0.404929"
     x="63.103992"
     y="83.991997"
     id="text4917"
     inkscape:label="text_editable"><tspan
       sodipodi:role="line"
       x="63.103992"
       y="83.991997"
       style="font-style:normal;font-variant:normal;font-weight:bold;font-stretch:normal;font-size:56px;font-family:sans-serif;-inkscape-font-specification:'sans-serif, Bold';font-variant-ligatures:normal;font-variant-caps:normal;font-variant-numeric:normal;font-variant-east-asian:normal;text-align:center;writing-mode:lr-tb;direction:ltr;text-anchor:middle;fill:#ffffff;fill-opacity:1;stroke-width:0.404929"
       id="tspan4915">L/D</tspan></text>
</svg>
